<?xml version="1.0" encoding="UTF-8"?>
<!DOCTYPE svg PUBLIC "-//W3C//DTD SVG 1.1//EN" "http://www.w3.org/Graphics/SVG/1.1/DTD/svg11.dtd">
<svg version="1.1" xmlns="http://www.w3.org/2000/svg" xmlns:xlink="http://www.w3.org/1999/xlink" x="0" y="0" width="1024" height="1024" viewBox="0, 0, 1024, 1024">
  <style>
    svg {
      background-color: white;
    }
    path {
      fill: #1d3557;
    }
    @media (prefers-color-scheme:dark) {
      svg {
        background-color: transparent;
      }
      path {
        fill: #6b88a2;
      }
    }
  </style>
  <g id="logo">
    <path d="M992,32 L992,992 L32,992 L32,32 L992,32 z M937.093,86.908 L86.908,86.908 L86.908,937.093 L937.093,937.093 L937.093,86.908 z" fill="#1D3557"/>
    <g id="calendar">
      <path d="M331.463,129.565 L490.639,129.565 L490.639,288.742 L331.463,288.742 L331.463,129.565 z" fill="#1D3557"/>
      <path d="M533.361,129.565 L692.537,129.565 L692.537,288.742 L533.361,288.742 L533.361,129.565 z" fill="#1D3557"/>
      <path d="M331.463,331.463 L490.639,331.463 L490.639,490.639 L331.463,490.639 L331.463,331.463 z" fill="#1D3557"/>
      <path d="M533.361,331.463 L692.537,331.463 L692.537,490.639 L533.361,490.639 L533.361,331.463 z" fill="#1D3557"/>
      <path d="M129.565,533.361 L288.742,533.361 L288.742,692.537 L129.565,692.537 L129.565,533.361 z" fill="#1D3557"/>
      <path d="M331.463,533.361 L490.639,533.361 L490.639,692.537 L331.463,692.537 L331.463,533.361 z" fill="#1D3557"/>
      <path d="M533.361,533.361 L692.537,533.361 L692.537,692.537 L533.361,692.537 L533.361,533.361 z" fill="#1D3557"/>
      <path d="M129.565,735.258 L288.742,735.258 L288.742,894.435 L129.565,894.435 L129.565,735.258 z" fill="#1D3557"/>
      <path d="M331.463,735.258 L490.639,735.258 L490.639,894.435 L331.463,894.435 L331.463,735.258 z" fill="#1D3557"/>
      <path d="M129.566,331.463 L288.742,331.463 L288.742,490.639 L129.566,490.639 L129.566,331.463 z" fill="#1D3557"/>
      <path d="M901.374,122.626 L901.374,295.681 L728.319,295.681 L728.319,122.626 L901.374,122.626 z M869.374,154.626 L760.319,154.626 L760.319,263.681 L869.374,263.681 L869.374,154.626 z" fill="#1E3557"/>
      <path d="M901.374,324.524 L901.374,497.579 L728.319,497.579 L728.319,324.524 L901.374,324.524 z M869.374,356.524 L760.319,356.524 L760.319,465.579 L869.374,465.579 L869.374,356.524 z" fill="#1E3557"/>
      <path d="M901.374,526.421 L901.374,699.476 L728.319,699.476 L728.319,526.421 L901.374,526.421 z M869.374,558.421 L760.319,558.421 L760.319,667.476 L869.374,667.476 L869.374,558.421 z" fill="#1E3557"/>
      <path d="M699.476,728.319 L699.476,901.374 L526.421,901.374 L526.421,728.319 L699.476,728.319 z M667.476,760.319 L558.421,760.319 L558.421,869.374 L667.476,869.374 L667.476,760.319 z" fill="#1E3557"/>
    </g>
  </g>
</svg>
